<svg id="Layer_1" enable-background="new 0 0 512 512" height="512" viewBox="0 0 512 512" width="512" xmlns="http://www.w3.org/2000/svg"><g><g><path d="m256 440c-121.309 0-220-98.691-220-220s98.691-220 220-220 220 98.691 220 220-98.692 220-220 220z" fill="#803602"/></g><path d="m256.064.001v439.998c121.279-.035 219.936-98.712 219.936-219.999s-98.657-219.964-219.936-219.999z" fill="#6f2e01"/><g><path d="m369.886 512h-228.18c-33.749 0-62.708-21.787-72.062-54.214l-55.271-191.629c-1.541-5.342-.001-11.099 4.002-14.957 4.004-3.859 9.812-5.187 15.094-3.45l27.775 9.13 27.776-9.13c3.041-1 6.326-1 9.367 0l27.775 9.13 27.775-9.13c3.041-1 6.326-1 9.367 0l27.776 9.13 27.775-9.13c3.041-1 6.326-1 9.367 0l27.778 9.13 27.775-9.13c3.041-1 6.324-1 9.367 0l27.776 9.13 27.775-9.13c3.041-1 6.326-1 9.367 0l27.775 9.13 27.775-9.13c3.041-1 6.326-1 9.367 0l27.776 9.13 27.775-9.13c5.285-1.738 11.101-.406 15.104 3.46s5.536 9.631 3.983 14.975l-55.712 191.741c-9.394 32.344-38.338 54.074-72.017 54.074zm57.617-58.259h.01z" fill="#b33363"/></g><g><path d="m103.5 136.5c-3.839 0-7.678-1.464-10.606-4.394l-35.5-35.5c-5.858-5.858-5.858-15.355 0-21.213 5.857-5.858 15.355-5.858 21.213 0l35.5 35.5c5.858 5.858 5.858 15.355 0 21.213-2.929 2.93-6.768 4.394-10.607 4.394z" fill="#b34f03"/></g><g><path d="m317.014 66.024c-5.184 0-10.226-2.69-13.004-7.502-4.143-7.174-1.685-16.348 5.49-20.49l39.008-22.521c7.174-4.141 16.348-1.685 20.49 5.49 4.143 7.174 1.685 16.348-5.49 20.49l-39.008 22.521c-2.362 1.363-4.942 2.012-7.486 2.012z" fill="#a24603"/></g><g><path d="m242.226 225.851c-3.839 0-7.678-1.464-10.606-4.394-5.858-5.858-5.858-15.355 0-21.213l23.137-23.136c5.858-5.858 15.356-5.858 21.213 0 5.858 5.858 5.858 15.355 0 21.213l-23.137 23.136c-2.929 2.929-6.769 4.394-10.607 4.394z" fill="#b34f03"/></g><g><path d="m350.25 156.179c-3.839 0-7.678-1.464-10.606-4.393-5.858-5.858-5.858-15.355 0-21.213l22.75-22.75c5.857-5.858 15.355-5.858 21.213 0 5.858 5.857 5.858 15.355 0 21.213l-22.75 22.75c-2.929 2.928-6.768 4.393-10.607 4.393z" fill="#a24603"/></g><g><path d="m117.812 228.862c-5.184 0-10.226-2.69-13.004-7.502-4.143-7.174-1.684-16.348 5.49-20.49l39.009-22.521c7.174-4.142 16.348-1.685 20.49 5.49 4.143 7.174 1.684 16.348-5.49 20.49l-39.009 22.521c-2.362 1.363-4.941 2.012-7.486 2.012z" fill="#b34f03"/></g><g><path d="m279.5 142.342c-3.839 0-7.678-1.464-10.606-4.394l-27.342-27.342c-5.858-5.858-5.858-15.355 0-21.213 5.857-5.858 15.355-5.858 21.213 0l27.342 27.342c5.858 5.858 5.858 15.355 0 21.213-2.929 2.929-6.768 4.394-10.607 4.394z" fill="#b34f03"/></g><g><path d="m169 147c-3.839 0-7.678-1.464-10.606-4.393-5.857-5.858-5.858-15.355 0-21.213l23.136-23.137c5.857-5.857 15.355-5.858 21.213 0 5.857 5.858 5.858 15.355 0 21.213l-23.136 23.137c-2.929 2.929-6.768 4.393-10.607 4.393z" fill="#b34f03"/></g><g><path d="m470.322 219.183c-2.545 0-5.124-.648-7.486-2.012l-28.336-16.36c-7.175-4.142-9.633-13.316-5.49-20.49 4.142-7.175 13.316-9.634 20.49-5.49l28.336 16.36c7.175 4.142 9.633 13.316 5.49 20.49-2.778 4.811-7.82 7.502-13.004 7.502z" fill="#a24603"/></g><g><path d="m202 76.75c-3.839 0-7.678-1.464-10.606-4.394l-35.5-35.5c-5.858-5.858-5.858-15.355 0-21.213 5.857-5.858 15.355-5.858 21.213 0l35.5 35.5c5.858 5.858 5.858 15.355 0 21.213-2.929 2.93-6.768 4.394-10.607 4.394z" fill="#b34f03"/></g><g><path d="m369.5 233.342c-3.839 0-7.678-1.464-10.606-4.394l-27.342-27.342c-5.858-5.858-5.858-15.355 0-21.213 5.857-5.858 15.355-5.858 21.213 0l27.342 27.342c5.858 5.858 5.858 15.355 0 21.213-2.929 2.929-6.768 4.394-10.607 4.394z" fill="#a24603"/></g><path d="m290.106 116.735-27.342-27.342c-1.926-1.926-4.247-3.205-6.701-3.865v39.59l12.83 12.83c2.929 2.929 6.768 4.394 10.606 4.394s7.678-1.464 10.606-4.394c5.86-5.858 5.86-15.355.001-21.213z" fill="#a24603"/><path d="m275.97 177.108c-5.44-5.441-14.018-5.82-19.906-1.153v42.271l19.906-19.905c5.858-5.857 5.858-15.355 0-21.213z" fill="#a24603"/><path d="m493.636 251.21c-4.004-3.866-9.819-5.199-15.104-3.46l-27.775 9.13-27.776-9.13c-3.041-1-6.326-1-9.367 0l-27.775 9.13-27.775-9.13c-3.041-1-6.326-1-9.367 0l-27.775 9.13-27.776-9.13c-3.043-1-6.326-1-9.367 0l-27.712 9.109v255.141h113.822c33.68 0 62.623-21.73 72.021-54.073l55.712-191.741c1.55-5.345.017-11.109-3.986-14.976z" fill="#ee3a81"/></g></svg>