<svg height="512" viewBox="0 0 512 512" width="512" xmlns="http://www.w3.org/2000/svg"><g id="filled_outline" data-name="filled outline"><ellipse cx="256" cy="304" fill="#99ff99" rx="232" ry="168"/><path d="m416 253.33h-312v-200.53c0-7.069 5.373-12.8 12-12.8h288c6.627 0 12 5.731 12 12.8z" fill="#5b3726"/><path d="m233.8 120a17.793 17.793 0 0 0 15.914-9.836 11.152 11.152 0 0 1 9.972-6.164h2.214a11.152 11.152 0 0 1 9.975 6.164 17.793 17.793 0 0 0 15.915 9.836 17.793 17.793 0 0 0 17.551-20.718l-.046-.272a32.324 32.324 0 0 0 -31.884-27.01h-25.235a32.324 32.324 0 0 0 -31.884 27.01l-.046.272a17.793 17.793 0 0 0 17.554 20.718z" fill="#eeb58e"/><path d="m358.528 135.166a17.8 17.8 0 0 0 -10.612 15.408 11.15 11.15 0 0 1 -6.651 9.656l-2.028.892a11.153 11.153 0 0 1 -11.612-1.631 17.8 17.8 0 0 0 -18.527-2.6 17.793 17.793 0 0 0 -7.731 26.028l.151.232a32.324 32.324 0 0 0 40.057 11.9l23.1-10.153a32.323 32.323 0 0 0 18.325-37.559l-.068-.267a17.793 17.793 0 0 0 -24.404-11.906z" fill="#cd9c7a"/><path d="m211.525 153.181a17.8 17.8 0 0 0 -18.125 4.619 11.15 11.15 0 0 1 -11.362 2.9l-2.114-.663a11.152 11.152 0 0 1 -7.672-8.867 17.791 17.791 0 0 0 -12.24-14.148 17.793 17.793 0 0 0 -22.948 14.514l-.038.274a32.324 32.324 0 0 0 22.338 35.315l24.078 7.553a32.324 32.324 0 0 0 38.507-16.228l.125-.246a17.792 17.792 0 0 0 -10.549-25.023z" fill="#cd9c7a"/><path d="m148.8 75.2h24v24h-24z" fill="#fbd699" transform="matrix(.6 -.8 .8 .6 -5.44 163.52)"/><path d="m348.402 76.402h24v24h-24z" fill="#fbd699" transform="matrix(.928 -.371 .371 .928 -7.054 140.173)"/><path d="m248 180.8h24v24h-24z" fill="#fbd699" transform="matrix(.8 -.6 .6 .8 -63.68 194.56)"/><path d="m408 360h-296a8 8 0 0 1 -8-8v-112h312v112a8 8 0 0 1 -8 8z" fill="#744630"/><g fill="#533222"><path d="m376 296h16v16h-16z"/><path d="m192 320h16v16h-16z"/><path d="m160 296h16v16h-16z"/><path d="m216 296h16v16h-16z"/><path d="m240 320h16v16h-16z"/><path d="m344 312h16v16h-16z"/><path d="m128 288h16v16h-16z"/><path d="m128 320h16v16h-16z"/><path d="m416 240h-312v20a12 12 0 0 0 12 12h140a16 16 0 0 0 32 0v39.548c0 8.615 6.621 16.029 15.227 16.434a16 16 0 0 0 16.773-15.982v-32a16 16 0 0 0 16.773 15.982c8.606-.405 15.227-7.819 15.227-16.434v-7.548h52a12 12 0 0 0 12-12z"/></g><path d="m360 428.191a8 8 0 0 1 -3.068-15.391 192.488 192.488 0 0 0 46.089-26.671 8 8 0 0 1 9.952 12.529 208.482 208.482 0 0 1 -49.911 28.921 7.971 7.971 0 0 1 -3.062.612z" fill="#fbd699"/><path d="m168 434.164a8 8 0 0 1 -2.533-.413 234.763 234.763 0 0 1 -41.414-18.289 8 8 0 1 1 7.892-13.918 218.734 218.734 0 0 0 38.586 17.029 8 8 0 0 1 -2.531 15.591z" fill="#fbd699"/><path d="m256 448a297.032 297.032 0 0 1 -57.554-5.556 8 8 0 1 1 3.108-15.695 284.892 284.892 0 0 0 108.892 0 8 8 0 1 1 3.108 15.695 297.032 297.032 0 0 1 -57.554 5.556z" fill="#fbd699"/><path d="m307.47 118.88a25.753 25.753 0 0 0 5.762-20.913l-.045-.273a40.2 40.2 0 0 0 -39.776-33.694h-25.235a40.2 40.2 0 0 0 -39.776 33.694l-.046.273a25.793 25.793 0 0 0 48.512 15.775 3.133 3.133 0 0 1 2.82-1.742h2.214a3.134 3.134 0 0 1 2.819 1.741 25.793 25.793 0 0 0 42.75 5.139zm-12.208-10.343a9.792 9.792 0 0 1 -16.231-1.951 19.049 19.049 0 0 0 -17.131-10.586h-2.215a19.049 19.049 0 0 0 -17.13 10.586 9.792 9.792 0 0 1 -18.418-5.988l.045-.273a24.248 24.248 0 0 1 23.994-20.325h25.235a24.248 24.248 0 0 1 23.989 20.325l.046.272a9.647 9.647 0 0 1 -2.184 7.94z"/><path d="m390.685 145.1a25.794 25.794 0 0 0 -35.375-17.26 25.656 25.656 0 0 0 -15.383 22.336 3.134 3.134 0 0 1 -1.88 2.729l-2.027.891a3.138 3.138 0 0 1 -3.283-.461 25.793 25.793 0 0 0 -38.065 33.96l.152.231a40.2 40.2 0 0 0 49.97 14.844l23.1-10.152a40.2 40.2 0 0 0 22.854-46.861zm-29.226 32.469-23.1 10.153a24.244 24.244 0 0 1 -30.142-8.953l-.151-.232a9.792 9.792 0 0 1 4.256-14.325 9.738 9.738 0 0 1 10.195 1.432 19.049 19.049 0 0 0 19.943 2.8l2.027-.89a19.05 19.05 0 0 0 11.424-16.585 9.792 9.792 0 0 1 19.273-1.917l.066.258a24.246 24.246 0 0 1 -13.791 28.261z"/><path d="m213.919 145.548a25.653 25.653 0 0 0 -26.28 6.7 3.139 3.139 0 0 1 -3.211.817l-2.113-.662a3.135 3.135 0 0 1 -2.169-2.506 25.792 25.792 0 0 0 -51.007.521l-.04.283a40.2 40.2 0 0 0 27.866 44.056l24.078 7.554a40.213 40.213 0 0 0 48.035-20.239l.128-.252a25.794 25.794 0 0 0 -15.287-36.271zm1.018 29.031-.128.252a24.252 24.252 0 0 1 -28.976 12.213l-24.079-7.554a24.247 24.247 0 0 1 -16.811-26.565l.04-.283a9.827 9.827 0 0 1 9.661-8.451 9.917 9.917 0 0 1 2.968.461 9.743 9.743 0 0 1 6.738 7.788 19.053 19.053 0 0 0 13.176 15.229l2.113.662a19.035 19.035 0 0 0 19.513-4.974 9.793 9.793 0 0 1 16.071 3 9.643 9.643 0 0 1 -.286 8.222z"/><path d="m139.2 96 19.2 14.4a8 8 0 0 0 11.2-1.6l14.4-19.2a8 8 0 0 0 -1.6-11.2l-19.2-14.4a8 8 0 0 0 -11.2 1.6l-14.4 19.2a8 8 0 0 0 1.6 11.2zm20.8-14.4 6.4 4.8-4.8 6.4-6.4-4.8z"/><path d="m346.289 106.972a7.994 7.994 0 0 0 10.4 4.456l22.283-8.913a8 8 0 0 0 4.457-10.4l-8.914-22.284a8 8 0 0 0 -10.4-4.457l-22.283 8.914a8 8 0 0 0 -4.457 10.4zm16.341-23.772 2.97 7.43-7.427 2.97-2.973-7.427z"/><path d="m268.8 171.2a8 8 0 0 0 -11.2-1.6l-19.2 14.4a8 8 0 0 0 -1.6 11.2l14.4 19.2a8 8 0 0 0 11.2 1.6l19.2-14.4a8 8 0 0 0 1.6-11.2zm-9.6 27.2-4.8-6.4 6.4-4.8 4.8 6.4z"/><path d="m376 296h16v16h-16z"/><path d="m192 320h16v16h-16z"/><path d="m160 296h16v16h-16z"/><path d="m216 296h16v16h-16z"/><path d="m240 320h16v16h-16z"/><path d="m344 312h16v16h-16z"/><path d="m128 288h16v16h-16z"/><path d="m128 320h16v16h-16z"/><path d="m87.259 429.272c45.174 32.712 105.1 50.728 168.741 50.728s123.567-18.016 168.741-50.728c45.952-33.272 71.259-77.765 71.259-125.272 0-24.878-6.9-48.914-20.519-71.44-12.356-20.445-29.67-38.713-51.481-54.36v-126.2a20.023 20.023 0 0 0 -20-20h-288a20.023 20.023 0 0 0 -20 20v120.725c-50.9 33.352-80 80.981-80 131.275 0 47.507 25.307 92 71.259 125.272zm320.751-77.272h-296.01v-72.4a20.047 20.047 0 0 0 4 .4h133.371a24.007 24.007 0 0 0 30.629 14.629v16.919a24.2 24.2 0 0 0 22.85 24.425c.392.018.781.027 1.17.027a23.782 23.782 0 0 0 16.545-6.634 24.112 24.112 0 0 0 7.435-17.366v-9.354a24.036 24.036 0 0 0 32-22.646h44a20 20 0 0 0 4-.4zm-120.01-88a8 8 0 0 0 -8 8 8 8 0 0 1 -16 0 8 8 0 0 0 -8-8h-140a4 4 0 0 1 -4-4v-12h296v12a4 4 0 0 1 -4 4h-52a8 8 0 0 0 -8 8v7.548a8.327 8.327 0 0 1 -7.6 8.442 8.016 8.016 0 0 1 -5.918-2.2 7.931 7.931 0 0 1 -2.482-5.79 8 8 0 0 0 -16 0v32a8 8 0 0 1 -8.4 7.99 8.327 8.327 0 0 1 -7.6-8.442v-39.548a8 8 0 0 0 -8-8zm-176-212a4 4 0 0 1 4-4h288a4 4 0 0 1 4 4v180h-296zm-16 140.171v159.829a16.019 16.019 0 0 0 16 16h296a16.019 16.019 0 0 0 16-16v-153.708c36.235 29.256 56 66.323 56 105.708 0 88.225-100.486 160-224 160s-224-71.775-224-160c0-41.875 23.144-81.989 64-111.829z"/><path d="m360 428.191a7.971 7.971 0 0 0 3.062-.612 208.482 208.482 0 0 0 49.911-28.921 8 8 0 0 0 -9.952-12.529 192.488 192.488 0 0 1 -46.086 26.671 8 8 0 0 0 3.065 15.391z"/><path d="m124.054 415.462a234.763 234.763 0 0 0 41.414 18.289 8 8 0 0 0 5.064-15.178 218.734 218.734 0 0 1 -38.586-17.029 8 8 0 1 0 -7.892 13.918z"/><path d="m198.446 442.444a300.876 300.876 0 0 0 115.108 0 8 8 0 1 0 -3.108-15.695 284.892 284.892 0 0 1 -108.892 0 8 8 0 1 0 -3.108 15.695z"/></g></svg>