<?xml version="1.0" encoding="iso-8859-1"?>
<!-- Generator: Adobe Illustrator 19.0.0, SVG Export Plug-In . SVG Version: 6.00 Build 0)  -->
<svg version="1.1" id="Capa_1" xmlns="http://www.w3.org/2000/svg" xmlns:xlink="http://www.w3.org/1999/xlink" x="0px" y="0px"
	 viewBox="0 0 511.999 511.999" style="enable-background:new 0 0 511.999 511.999;" xml:space="preserve">
<path style="fill:#B9D8F4;" d="M146.034,282.283l43.352-32.837c-7.856-65.93-45.016-175.741-56.616-199.247
	C116.628,17.487,77.026,4.055,44.314,20.196S-1.83,75.941,14.312,108.653C26.58,133.514,98.066,239.784,146.034,282.283z"/>
<path style="fill:#96C8EF;" d="M148.307,90.21c-4.579,30.914-16.536,92.212-44.439,146.803
	c14.684,17.817,29.274,33.848,42.167,45.27l43.352-32.837C183.848,202.971,163.75,134.693,148.307,90.21z"/>
<path style="fill:#FF728B;" d="M154.687,223.322c2.485,9.973-10.363,16.314-16.767,8.274c-4.513-5.666-9.28-11.805-14.305-18.445
	c-31.947-42.225-57.193-82.085-62.349-92.536c-3.426-6.942-6.293-28.401,13.163-38.811s33.888,3.19,38.81,13.164
	c5.157,10.451,21.435,54.738,35.512,105.779C150.965,208.776,152.936,216.294,154.687,223.322z"/>
<path style="fill:#FF3F62;" d="M148.751,200.749c-4.533-16.438-9.293-32.166-13.839-46.297c-4.402,16.287-9.952,33.738-16.905,51.22
	c1.844,2.482,3.713,4.976,5.608,7.48c5.024,6.64,9.792,12.779,14.305,18.445c6.403,8.04,19.253,1.699,16.767-8.274
	C152.936,216.294,150.965,208.776,148.751,200.749z"/>
<path style="fill:#96C8EF;" d="M338.642,280.548c28.177-25.622,63.893-72.042,91.008-110.942l-97.054-74.037
	c-14.773,39.05-35.388,105.939-40.717,152.565L338.642,280.548z"/>
<path style="fill:#78B9EB;" d="M354.373,264.98c24.933-26.406,53.005-63.423,75.278-95.374l-97.054-74.037
	c-1.064,2.814-2.162,5.788-3.28,8.873C329.316,104.441,323.181,191.183,354.373,264.98z"/>
<path style="fill:#FF728B;" d="M328.056,223.322c-2.485,9.973,10.363,16.314,16.767,8.274c4.513-5.666,9.28-11.805,14.305-18.445
	c31.947-42.225,57.193-82.085,62.349-92.536c3.426-6.942,6.293-28.401-13.163-38.811c-19.456-10.409-33.888,3.19-38.81,13.164
	c-5.157,10.451-21.435,54.738-35.512,105.779C331.779,208.776,329.807,216.294,328.056,223.322z"/>
<path style="fill:#FF3F62;" d="M408.314,81.805c-19.456-10.409-33.888,3.19-38.81,13.164c-5.027,10.188-20.621,52.531-34.444,101.94
	c2.034,11.775,4.701,24.004,8.196,36.268c0.552-0.45,1.079-0.968,1.566-1.579c4.512-5.666,9.28-11.804,14.305-18.445
	c31.948-42.225,57.193-82.085,62.349-92.536C424.903,113.674,427.771,92.215,408.314,81.805z"/>
<path style="fill:#D1E7F8;" d="M329.442,104.095c0,0,29.457,202.09,136.398,161.874c88.482-33.276,1.866-144.766-30.67-182.263
	c-11.186-12.891-26.297-21.922-43.091-24.962C370.089,54.765,342.407,59.812,329.442,104.095z"/>
<path style="fill:#C2DFF6;" d="M441.772,271.197c-51.295-69.877-51.756-182.375-50.869-212.648
	c-21.786-3.572-48.725,2.049-61.461,45.547C329.442,104.095,354.426,275.372,441.772,271.197z"/>
<path style="fill:#57565C;" d="M132.735,492.677c-21.309-39.987-34.547-87.047-34.547-122.815
	c0-79.591,64.752-144.343,144.343-144.343s144.343,64.752,144.343,144.343c0,35.769-13.237,82.827-34.545,122.813
	c-3.208,6.022-10.694,8.303-16.717,5.093c-6.022-3.209-8.303-10.693-5.093-16.716c19.517-36.624,31.641-79.23,31.641-111.19
	c0-65.964-53.666-119.63-119.63-119.63s-119.63,53.666-119.63,119.63c0,31.961,12.125,74.566,31.643,111.192
	c3.21,6.022,0.942,13.531-5.093,16.717C142.23,501.583,134.957,496.849,132.735,492.677z"/>
<g>
	<path style="fill:#3E3D42;" d="M154.539,481.07c-19.518-36.626-31.643-79.232-31.643-111.192c0-30.891,11.771-59.086,31.06-80.334
		c-79.948,86.254-4.511,208.243-4.511,208.243C155.481,494.601,157.749,487.093,154.539,481.07z"/>
	<path style="fill:#3E3D42;" d="M330.525,481.07c19.518-36.626,31.643-79.232,31.643-111.192c0-30.891-11.771-59.086-31.06-80.334
		c79.948,86.254,4.511,208.243,4.511,208.243C329.583,494.601,327.315,487.093,330.525,481.07z"/>
</g>
<path d="M155.982,198.755c-14.206-51.502-30.747-96.426-36.018-107.104c-3.536-7.167-11.196-16.07-22.086-19.565
	c-8.66-2.779-17.993-1.706-26.987,3.107c-23.917,12.796-21.242,38.831-16.351,48.742c5.269,10.678,30.858,51.137,63.094,93.742
	c4.903,6.48,9.755,12.736,14.42,18.592c3.383,4.247,11.243,9.067,20.903,4.67c7.487-3.408,10.998-11.45,9.008-19.431l0,0
	C160.149,214.216,158.134,206.561,155.982,198.755z M146.319,227.488c-1.495,0.737-2.274-0.243-2.531-0.565
	c-4.587-5.759-9.361-11.916-14.19-18.297c-31.663-41.849-56.563-81.109-61.605-91.33c-1.512-3.063-5.859-20.406,9.975-28.877
	c3.538-1.893,6.97-2.842,10.257-2.842c1.731,0,3.424,0.264,5.069,0.792c6.434,2.064,11.142,7.711,13.219,11.92
	c5.043,10.22,21.055,53.866,35.008,104.455c2.12,7.687,4.102,15.222,5.89,22.393C147.51,225.536,147.813,226.751,146.319,227.488z"
	/>
<path d="M486.938,141.78c-2.104-3.569-6.7-4.755-10.27-2.652c-3.568,2.103-4.756,6.701-2.652,10.27
	c20.151,34.188,27.226,62.394,20.459,81.57c-4.44,12.584-14.671,21.737-31.273,27.98c-19.608,7.374-36.964,6.343-53.057-3.148
	c-51.61-30.444-70.671-136.819-73.026-151.187c9.45-30.714,27.003-43.306,53.626-38.488c14.719,2.664,28.484,10.653,38.762,22.497
	c7.192,8.289,18.035,21.378,28.843,36.669c2.391,3.382,7.072,4.187,10.453,1.795c3.383-2.391,4.187-7.071,1.795-10.454
	c-11.164-15.793-22.347-29.295-29.762-37.841c-12.51-14.416-29.349-24.155-47.419-27.426c-15.035-2.722-28.389-0.902-39.693,5.407
	c-14.445,8.059-25.023,23.241-31.448,45.118l-0.012-0.004c-12.052,33.278-26.977,81.928-34.459,123.026
	c-14.305-4.477-29.511-6.893-45.273-6.893c-41.555,0-79.259,16.785-106.704,43.924C88.798,212.964,31.194,125.913,21.038,105.335
	c-14.286-28.95-2.354-64.126,26.596-78.412c14.023-6.92,29.901-7.964,44.713-2.942c14.811,5.023,26.777,15.514,33.698,29.537
	c8.797,17.828,33.601,88.9,47.727,151.535c0.911,4.04,4.923,6.579,8.967,5.666c4.04-0.912,6.577-4.926,5.666-8.967
	c-14.371-63.713-39.833-136.481-48.908-154.872c-8.692-17.618-23.727-30.794-42.331-37.106c-18.605-6.309-38.553-4.997-56.172,3.696
	C4.628,31.418-10.359,75.605,7.586,111.973c12.126,24.573,72.055,113.247,118.083,161.046
	c-21.835,26.303-34.982,60.066-34.982,96.844c0,36.925,13.584,85.333,35.428,126.342c5.961,11.193,21.647,10.94,26.838,8.199
	c4.682-2.472,8.116-6.625,9.672-11.697c1.562-5.09,1.042-10.481-1.462-15.181c-18.975-35.606-30.762-76.86-30.762-107.665
	c0-61.828,50.301-112.129,112.129-112.129c61.829,0,112.13,50.301,112.13,112.129c0,30.804-11.787,72.058-30.759,107.662
	c-2.495,4.681-3.018,10.052-1.472,15.127c1.546,5.074,4.975,9.242,9.655,11.737c2.916,1.554,19.608,5.602,26.863-8.185
	c9.418-17.898,17.734-37.696,23.778-57.395c1.215-3.96-1.01-8.155-4.97-9.37c-3.961-1.216-8.154,1.009-9.37,4.97
	c-5.768,18.796-13.883,37.583-22.677,54.742c-1.844,3.599-5.426,2.61-6.569,2.001c-1.145-0.61-3.949-2.951-2.001-6.569
	c20.218-37.561,32.523-81.602,32.523-114.717c0-70.1-57.031-127.13-127.131-127.13s-127.13,57.03-127.13,127.13
	c0,33.117,12.103,77.269,32.525,114.72c2.004,3.676-0.848,5.96-1.976,6.555c-3.195,1.688-6.194-1.234-6.596-1.988
	c-20.766-38.966-33.666-84.674-33.666-119.288c0-75.456,61.388-136.842,136.842-136.842c75.456,0,136.843,61.388,136.843,136.842
	c0,9.823-1.047,20.687-3.112,32.288c-0.727,4.078,1.991,7.972,6.069,8.698c4.077,0.726,7.973-1.991,8.698-6.069
	c2.22-12.466,3.345-24.213,3.345-34.917c0-37.384-13.588-71.648-36.074-98.135c6.449-6.754,13.346-14.473,20.61-23.063
	c7.049,8.029,35.688,44.362,89.568,24.324c20.741-7.713,34.219-20.248,40.141-37.03C517.026,212.137,509.732,180.451,486.938,141.78
	z M344.912,189.713c2.512,6.316,5.264,12.646,8.276,18.858c-0.014,0.018-0.027,0.037-0.041,0.055
	c-4.829,6.382-9.604,12.539-14.191,18.298c-0.257,0.322-1.036,1.303-2.531,0.564c-1.494-0.737-1.191-1.953-1.092-2.352
	c1.788-7.172,3.77-14.707,5.89-22.394C342.41,198.44,343.649,194.085,344.912,189.713z M348.028,260.764
	c-13.23-12.797-28.769-23.218-45.928-30.564c5.446-31.079,15.508-67.078,25.353-97.245c2.201,9.507,5.142,20.795,8.951,32.82
	c-3.415,11.076-6.66,22.165-9.643,32.982c-2.152,7.806-4.166,15.462-5.983,22.754c-1.989,7.981,1.631,15.791,9.008,19.431
	c2.509,1.238,5.135,1.838,7.71,1.838c5.001,0,9.811-2.262,13.193-6.508c3.33-4.18,6.757-8.571,10.228-13.096
	c2.682,4.635,5.53,9.129,8.551,13.426C361.87,245.674,354.7,253.746,348.028,260.764z"/>
<g>
</g>
<g>
</g>
<g>
</g>
<g>
</g>
<g>
</g>
<g>
</g>
<g>
</g>
<g>
</g>
<g>
</g>
<g>
</g>
<g>
</g>
<g>
</g>
<g>
</g>
<g>
</g>
<g>
</g>
</svg>
