<svg id="Capa_1" enable-background="new 0 0 512 512" height="512" viewBox="0 0 512 512" width="512" xmlns="http://www.w3.org/2000/svg"><g><path d="m405.103 154.161c41.74 14.626 67.962 93.644 42.213 167.129-17.37 49.57-70.205 71.592-119.775 54.222s-77.104-67.553-59.735-117.123c25.749-73.484 95.557-118.853 137.297-104.228z" fill="#f7f3f1"/><path d="m405.103 154.161c-2.429-.851-4.957-1.491-7.563-1.942 31.47 18.501 46.879 90.351 22.629 159.559-16.503 47.098-59.536 71.245-99.875 60.891 2.36 1.025 4.775 1.977 7.247 2.843 49.57 17.37 102.405-4.652 119.775-54.222 25.748-73.484-.474-152.503-42.213-167.129z" fill="#ebe1dc"/><ellipse cx="379.996" cy="292.402" fill="#94d4a2" rx="32.998" ry="32.998" transform="matrix(.707 -.707 .707 .707 -95.462 354.34)"/><path d="m445.349 206.15c1.099 0 2.18.076 3.243.208 5.15 14.646 8.289 31.374 8.84 49.082-3.615 1.89-7.722 2.964-12.084 2.964-14.429 0-26.126-11.697-26.126-26.127s11.698-26.127 26.127-26.127z" fill="#94d4a2"/><path d="m445.349 258.404c4.361 0 8.469-1.074 12.084-2.964-.478-15.371-2.962-31.286-7.898-46.311-.305-.93-.942-2.77-.942-2.77-1.063-.132-2.144-.208-3.243-.208-5.963 0-11.457 2.002-15.854 5.365 2.297 13.21 3.131 27.783 2.212 43.045 3.97 2.436 8.641 3.843 13.641 3.843z" fill="#6dc17d"/><ellipse cx="366.991" cy="203.72" fill="#94d4a2" rx="17.771" ry="17.771" transform="matrix(.707 -.707 .707 .707 -36.563 319.17)"/><path d="m226.447 141.003c44.225-.532 95.892 64.753 96.828 142.613.632 52.521-41.485 91.286-94.006 91.918s-95.559-37.107-96.191-89.629c-.937-77.861 49.144-144.37 93.369-144.902z" fill="#80b6fc"/><path d="m226.447 141.003c-4.055.049-8.16.658-12.27 1.774 36.522 9.981 74.726 70.456 75.578 141.291.582 48.354-31.104 84.972-72.607 90.923 3.972.408 8.018.593 12.121.543 52.521-.632 94.638-39.396 94.006-91.918-.937-77.86-52.603-143.145-96.828-142.613z" fill="#62a4fb"/><path d="m154.142 198.873c3.274.268 6.489 1.213 9.338 2.854l15.307 8.837c6.81 3.936 15.706 3.936 22.516 0l15.307-8.837c6.81-3.923 15.706-3.923 22.516 0l15.307 8.837c6.809 3.936 15.706 3.936 22.516 0l15.307-8.837c2.715-1.564 5.763-2.494 8.878-2.811 10.105 18.385 17.567 40.076 20.627 63.469l-6.989-4.041c-6.809-3.923-15.706-3.923-22.516 0l-15.307 8.85c-6.81 3.923-15.706 3.923-22.516 0l-15.307-8.85c-6.81-3.923-15.706-3.923-22.516 0l-15.307 8.85c-6.809 3.923-15.706 3.923-22.516 0l-15.307-8.85c-6.81-3.923-15.706-3.923-22.516 0l-6.592 3.807c2.802-23.282 9.959-44.919 19.77-63.278z" fill="#f1cd88"/><path d="m314.769 258.344 6.989 4.041c-2.853-21.791-9.787-43.746-20.627-63.469-3.114.317-6.163 1.247-8.878 2.811 0 0-16.386 9.419-16.941 9.678 6.041 14.97 10.538 31.647 12.805 49.33l4.136-2.391c6.81-3.923 15.706-3.923 22.516 0z" fill="#ebb34c"/><path d="m504.5 310.126v12.523c0 10.24-8.922 18.542-19.928 18.542h-457.144c-11.006 0-19.928-8.301-19.928-18.542v-12.523c0-10.24 8.922-18.542 19.928-18.542h457.145c11.005.001 19.927 8.302 19.927 18.542z" fill="#ecb880"/><path d="m484.572 291.585h-37.452c11.006 0 19.927 8.301 19.927 18.542v12.523c0 10.24-8.922 18.542-19.927 18.542h37.452c11.006 0 19.928-8.301 19.928-18.542v-12.523c0-10.241-8.922-18.542-19.928-18.542z" fill="#e69642"/><path d="m461.215 341.191-29.825 92.42c-8.928 27.666-35.381 46.502-65.305 46.502h-220.171c-29.924 0-56.377-18.836-65.305-46.502l-29.825-92.42z" fill="#ecb880"/><path d="m426.613 341.191h-375.829l8.773 27.187h334.077c11.958 0 20.444 11.655 16.771 23.035l-13.618 42.198c-8.928 27.666-35.381 46.502-65.305 46.502h34.602c29.924 0 56.377-18.836 65.305-46.502l29.825-92.42z" fill="#e69642"/><g><g><g><path d="m60.756 330.193c4.286-8.248 10.266-15.497 14.916-23.546 4.649-8.049 7.994-17.435 6.243-26.565l34.936 3.621c1.751 9.129-1.594 18.515-6.243 26.565-4.649 8.049-10.629 15.298-14.915 23.546-8.411 16.186-9.592 35.927-3.375 53.054.743 2.046-.928 4.159-3.093 3.934l-28.31-2.934c-1.067-.111-2.006-.782-2.42-1.771-7.441-17.756-6.621-38.811 2.261-55.904z" fill="#df646e"/></g><g><path d="m172.218 330.193c-4.286-8.248-10.266-15.497-14.916-23.546-4.649-8.049-7.994-17.435-6.243-26.565l-34.936 3.621c-1.751 9.129 1.594 18.515 6.243 26.565 4.649 8.049 10.629 15.298 14.915 23.546 8.411 16.186 9.592 35.927 3.375 53.054-.743 2.046.928 4.159 3.093 3.934l28.31-2.934c1.067-.111 2.006-.782 2.42-1.771 7.44-17.756 6.621-38.811-2.261-55.904z" fill="#df646e"/></g></g><path d="m48.011 279.154c1.978-2.496 1.978-6.01 0-8.506-2.323-2.932-4.438-6.008-5.945-9.42-2.37-5.367-3.06-11.782-.434-17.029 2.832-5.657 9.123-9.023 15.421-9.623 6.298-.599 12.599 1.209 18.4 3.733 16.075 6.996 29.518 19.821 37.343 35.503v2.178c-7.826 15.682-21.268 28.507-37.343 35.503-5.801 2.525-12.102 4.333-18.4 3.733s-12.589-3.965-15.421-9.623c-2.626-5.247-1.936-11.662.434-17.029 1.507-3.412 3.622-6.488 5.945-9.42z" fill="#dc4955"/><path d="m184.963 279.154c-1.978-2.496-1.978-6.01 0-8.506 2.323-2.932 4.438-6.008 5.945-9.42 2.37-5.367 3.06-11.782.434-17.029-2.832-5.657-9.123-9.023-15.421-9.623-6.298-.599-12.599 1.209-18.4 3.733-16.075 6.996-29.518 19.821-37.343 35.503v2.178c7.826 15.682 21.268 28.507 37.343 35.503 5.801 2.525 12.102 4.333 18.4 3.733s12.589-3.965 15.421-9.623c2.626-5.247 1.936-11.662-.434-17.029-1.507-3.412-3.622-6.488-5.945-9.42z" fill="#dc4955"/><path d="m116.487 247.307c12.096 0 21.902 9.806 21.902 21.902v11.383c0 12.096-9.806 21.902-21.902 21.902s-21.902-9.806-21.902-21.902v-11.383c0-12.096 9.806-21.902 21.902-21.902z" fill="#df646e"/></g><g><path d="m484.57 284.08h-20.96c1.179-9.707 1.611-19.444 1.306-29.051-.004-.071-.004-.141-.008-.212-1.039-17.97-3.966-36.968-10.259-53.761-10.432-27.821-27.147-46.989-47.07-53.974-12.071-4.229-26.04-4.229-41.014-.091-3.275-68.158-59.754-122.601-128.715-122.601-34.416 0-66.776 13.401-91.124 37.738-24.335 24.346-37.736 56.707-37.736 91.122v87.531c-3.334.88-6.437 2.334-9.199 4.247-6.433-5.621-13.697-10.271-21.341-13.593-8.139-3.55-15.379-4.962-22.11-4.322-9.425.898-17.631 6.16-21.42 13.737-3.386 6.786-3.28 15.317.286 23.398 1.505 3.421 3.606 6.813 6.606 10.651-2.614 3.351-4.488 6.258-5.921 9.18h-8.461c-15.125.001-27.43 11.687-27.43 26.051v12.52c0 14.358 12.305 26.04 27.43 26.04h17.891l1.114 3.45c-1.411 12.437.269 25.233 5.152 36.889 1.481 3.492 4.757 5.906 8.552 6.301l.246.025 13.089 40.558c9.979 30.921 39.09 51.697 72.438 51.697h220.18c33.348 0 62.458-20.775 72.438-51.696l28.153-87.224h17.89c15.125 0 27.43-11.682 27.43-26.04v-12.52c-.003-14.364-12.308-26.05-27.433-26.05zm-41.436-70.285c3.576 11.53 5.778 23.885 6.562 36.598-1.41.338-2.862.511-4.347.511-10.271 0-18.627-8.356-18.627-18.626.001-9.521 7.184-17.383 16.412-18.483zm-40.516-52.557c13.871 4.863 26.462 18.645 35.196 38.274-14.924 3.431-26.092 16.814-26.092 32.765 0 18.542 15.085 33.626 33.627 33.626 1.543 0 3.082-.12 4.608-.332-.162 6.151-.638 12.337-1.454 18.509h-28.866c-3.799-18.533-19.994-32.18-39.638-32.18-19.649 0-35.848 13.647-39.647 32.18h-9.578c-.001-.184.007-.367.005-.551-.333-27.632-7.151-56.718-20.102-82.523 14.03-15.347 30.499-27.632 46.815-34.842 16.88-7.458 32.905-9.208 45.126-4.926zm1.454 122.842h-48.153c3.493-9.96 13.046-17.18 24.081-17.18 11.031 0 20.58 7.22 24.072 17.18zm-206.988 0c-1.059-2.148-2.367-4.308-3.993-6.593 4.212-.415 8.294-1.688 11.961-3.804l15.3-8.843c4.492-2.586 10.531-2.587 15.014-.007l15.314 8.853c9.119 5.262 20.901 5.261 30.024-.004l15.287-8.842c4.496-2.588 10.538-2.589 15.024-.006l3.724 2.153c.619 5.565.972 11.149 1.039 16.716.001.126-.004.252-.003.378h-118.691zm-49.359 55.003c-.103-.351-.232-.689-.382-1.017-.988-2.637-2.112-5.22-3.407-7.714-2.596-4.998-5.694-9.553-8.691-13.958-2.162-3.177-4.203-6.192-6.033-9.299 1.39-.67 2.716-1.451 3.975-2.323 6.867 6.003 14.749 10.959 23.185 14.357.482.714.96 1.43 1.445 2.142 2.864 4.208 5.568 8.184 7.747 12.375 7.479 14.404 8.538 31.809 2.982 47.047l-18.752 1.94c3.622-14.304 2.868-29.734-2.069-43.55zm-64.542 43.552-18.756-1.941c-3.235-8.883-4.21-18.484-2.999-27.798 2.228-10.977 2.069-14.496 13.734-31.636.482-.708.958-1.421 1.437-2.13 8.617-3.473 16.464-8.474 23.192-14.355 1.259.872 2.586 1.653 3.977 2.323-1.833 3.112-3.879 6.132-6.045 9.316-2.993 4.397-6.088 8.944-8.688 13.938-1.297 2.496-2.422 5.08-3.41 7.72-.149.324-.277.659-.378 1.006-4.94 13.821-5.693 29.254-2.064 43.557zm33.306-127.826c7.939 0 14.399 6.46 14.399 14.401v11.383c0 7.446-5.682 13.592-12.938 14.328-8.473.859-15.866-5.8-15.866-14.328v-11.383c.001-7.941 6.463-14.401 14.405-14.401zm41.603-47.374c.568.232 1.12.489 1.637.787l15.304 8.835c9.118 5.271 20.902 5.271 30.019.002l15.301-8.833c4.494-2.589 10.533-2.59 15.021-.003l15.304 8.835c4.56 2.636 9.786 3.954 15.012 3.954 5.225 0 10.449-1.317 15.007-3.952l15.301-8.833c.391-.225.802-.427 1.223-.615 6.504 12.917 11.439 26.961 14.58 41.437-7.729-2.159-16.297-1.236-23.305 2.799l-15.294 8.846c-4.493 2.592-10.53 2.592-15.018.003l-15.322-8.857c-9.11-5.245-20.884-5.244-30.004.007l-13.426 7.761c1.823-6.628 1.367-13.27-1.383-18.761-3.786-7.573-11.992-12.834-21.417-13.732-6.74-.644-13.972.772-22.104 4.319-2.369 1.031-4.699 2.193-6.982 3.465 2.836-9.834 6.416-19.022 10.546-27.464zm7.255-13.184c17.503-28.402 41.249-45.509 61.193-45.752 19.1-.245 40.947 14.266 58.452 38.773 1.678 2.35 3.292 4.767 4.846 7.238-.453.229-.898.469-1.335.721l-15.31 8.839c-4.488 2.594-10.521 2.594-15.013-.002l-15.313-8.84c-9.113-5.25-20.891-5.25-30.01.003l-15.31 8.839c-4.489 2.594-10.521 2.594-15.013-.002.002.001-16.549-9.511-17.187-9.817zm-55.224 130.603c2.139-3.143 4.335-6.391 6.367-9.809 2.027 3.409 4.218 6.652 6.352 9.788 2.053 3.017 4.015 5.916 5.77 8.857h-24.249c1.754-2.934 3.712-5.827 5.76-8.836zm50.389-20.241c-6.296-2.739-12.272-6.579-17.559-11.222 1.88-3.871 2.936-8.214 2.936-12.798v-11.383c0-4.584-1.056-8.926-2.935-12.797 5.296-4.649 11.274-8.491 17.565-11.228 5.744-2.506 10.542-3.536 14.69-3.138 4.254.405 7.952 2.567 9.425 5.513 1.369 2.732 1.15 6.711-.582 10.635-1.307 2.953-2.794 5.061-4.963 7.789-4.174 5.25-4.174 12.584-.007 17.826 4.097 5.169 8.517 12.519 5.55 18.437-1.474 2.947-5.173 5.113-9.423 5.518-4.129.393-8.933-.638-14.697-3.152zm-3.18-231.878c21.513-21.503 50.107-33.345 80.518-33.345 62.479 0 113.359 50.578 113.858 112.936-.093.041-.185.076-.277.117-17.127 7.568-33.708 19.519-48.433 34.821-1.852-2.981-3.784-5.888-5.8-8.71-20.355-28.499-46.858-45.341-70.839-45.054-42.162.513-83.346 50.557-96.349 109.615-1.897-.987-3.912-1.777-6.021-2.334v-87.531c0-30.41 11.843-59.005 33.343-80.515zm-108.994 174.819c1.471-2.941 5.169-5.103 9.423-5.508 4.146-.396 8.947.632 14.7 3.143 6.288 2.732 12.265 6.571 17.562 11.22-1.881 3.872-2.938 8.215-2.938 12.8v11.383c0 4.586 1.057 8.93 2.938 12.802-7.88 6.918-21.967 15.35-32.262 14.369-4.25-.405-7.949-2.571-9.426-5.523-1.108-2.212-1.177-5.231-.194-8.496.228-.754.491-1.471.795-2.155 1.034-2.352 2.564-4.755 4.943-7.771 4.177-5.251 4.178-12.586.011-17.824-2.35-2.968-3.924-5.441-4.958-7.793-1.737-3.933-1.957-7.915-.594-10.647zm-33.338 75.096v-12.52c0-6.093 5.576-11.05 12.43-11.05h5.054c.128 3.527.939 6.883 2.438 9.875 3.79 7.579 11.996 12.844 21.417 13.742l.018.001c-.779 1.317-1.537 2.655-2.251 4.033-1.177 2.264-2.218 4.59-3.142 6.959h-23.534c-6.854 0-12.43-4.953-12.43-11.04zm409.252 108.657c-7.973 24.705-31.347 41.303-58.162 41.303h-220.18c-26.815 0-50.189-16.599-58.162-41.304l-11.058-34.263 11.74 1.215c.376.04.751.06 1.123.06 3.201 0 6.214-1.454 8.22-4.015 2.233-2.853 2.832-6.586 1.598-9.992-4.123-11.352-4.548-24.015-1.438-35.62h37.105c3.112 11.604 2.691 24.261-1.417 35.592-1.251 3.402-.666 7.142 1.564 10.003 2.006 2.574 5.023 4.034 8.222 4.033.369 0 .742-.02 1.115-.059l28.307-2.929c3.791-.391 7.068-2.803 8.569-6.333 5.326-12.715 6.845-26.806 4.673-40.308h264.846zm72.748-108.657c0 6.087-5.576 11.04-12.43 11.04h-302.558c-.923-2.369-1.963-4.695-3.138-6.959-.717-1.379-1.477-2.717-2.256-4.034l.013-.001c9.421-.897 17.627-6.163 21.414-13.735 1.502-2.997 2.317-6.355 2.447-9.881h284.078c6.854 0 12.43 4.957 12.43 11.05z"/><path d="m341.721 203.72c0 13.935 11.336 25.271 25.271 25.271s25.271-11.336 25.271-25.271-11.336-25.271-25.271-25.271-25.271 11.336-25.271 25.271zm25.27-10.271c5.663 0 10.271 4.607 10.271 10.271s-4.607 10.271-10.271 10.271-10.271-4.607-10.271-10.271 4.608-10.271 10.271-10.271z"/></g></g></svg>