<svg id="Capa_1" enable-background="new 0 0 512 512" height="512" viewBox="0 0 512 512" width="512" xmlns="http://www.w3.org/2000/svg"><g><g><path d="m64.041 75.046h29.999v97.962h-29.999z" fill="#f4e6d3"/><path d="m390.746 75.046h29.999v126.28h-29.999z" fill="#eacab9"/></g><path d="m.01 0h511.99v90.05h-511.99z" fill="#dd9c66"/><path d="m221.016 378.95-69.369 19.6-.05.01c-7.8 2.2-15.74 3.29-23.63 3.29-14.6 0-29.039-3.73-42.129-11.07-20.16-11.29-34.719-29.77-40.999-52.02l-26.579-94.25 71.539-57.5 80.838 14.47 12.47 44.22.3-.09c17.8-5.02 36.489-2.81 52.629 6.23 16.13 9.04 27.789 23.82 32.809 41.63 10.36 36.76-11.09 75.11-47.829 85.48z" fill="#00874a"/><path d="m221.016 378.95-69.369 19.6-61.849-211.54 80.838 14.47 12.47 44.22.3-.09c17.8-5.02 36.489-2.81 52.629 6.23 16.13 9.04 27.789 23.82 32.809 41.63 10.361 36.76-11.089 75.11-47.828 85.48z" fill="#006635"/><path d="m170.637 201.48-70.769 19.98-81.608 23.05-18.26-64.77 80.978-22.87 71.399-20.16z" fill="#006635"/><path d="m508.89 359.11c-4.33 29.98-13.06 60.02-25.08 85.25-20.79 43.62-48.509 67.64-78.068 67.64-29.549 0-57.279-24.02-78.068-67.64-12.02-25.23-20.74-55.27-25.079-85.25l49.699-79.74h106.908z" fill="#ff6969"/><path d="m508.89 359.11c-4.33 29.98-13.06 60.02-25.08 85.25-20.79 43.62-48.509 67.64-78.068 67.64v-232.63h53.459z" fill="#ce4963"/><path d="m512 317.57c0 13.5-1.07 27.51-3.11 41.54l-49.689-49.74-53.459 53.5-53.449-53.5-49.699 49.74c-2.03-14.03-3.1-28.04-3.1-41.54 0-42.37 10.24-75.55 30.439-98.62 18.69-21.34 44.909-32.62 75.809-32.62 30.909 0 57.119 11.28 75.819 32.62 20.199 23.07 30.439 56.25 30.439 98.62z" fill="#ce4963"/><path d="m170.637 201.48-70.769 19.98-18.89-64.59 71.399-20.16z" fill="#004b23"/><path d="m512 317.57c0 13.5-1.07 27.51-3.11 41.54l-49.689-49.74-53.459 53.5v-176.54c30.909 0 57.119 11.28 75.819 32.62 20.199 23.07 30.439 56.25 30.439 98.62z" fill="#ad1e55"/><path d="m256.005 0h255.995v90.05h-255.995z" fill="#d87f60"/></g></svg>