<svg height="512" viewBox="0 0 60 60" width="512" xmlns="http://www.w3.org/2000/svg"><g id="Page-1" fill="none" fill-rule="evenodd"><g id="074---Heart-Eyed-Pudding" fill-rule="nonzero"><path id="Shape" d="m34 7c-.0551566 2.13717965-1.7811217 3.8531974-3.9185845 3.8960001-2.1374627.0428028-3.9307433-1.60274193-4.0714155-3.7360001-.0083078-.05290564-.0116557-.10647164-.01-.16 0-2.209139 1.790861-4 4-4 .1907544-.00161501.3813408.01175947.57.04 1.1959083.17124765 2.2486596.87798977 2.86 1.92h.01c.3710492.61541969.5648459 1.32139343.56 2.04z" fill="#f44335"/><path id="Shape" d="m33.44 4.96h-.01c-.6113404-1.04201023-1.6640917-1.74875235-2.86-1.92-.1886592-.02824053-.3792456-.04161501-.57-.04-.5147484.00153378-1.0242577.10343563-1.5.3.8098111.32367731 1.4888389.90771157 1.93 1.66h.01c.3710492.61541969.5648459 1.32139343.56 2.04-.0020078 1.63090125-.993961 3.0972669-2.507 3.706 1.2334053.5016495 2.6355722.356669 3.7402423-.3867318 1.1046702-.74340067 1.7670041-1.98774997 1.7667577-3.3192682.0048459-.71860657-.1889508-1.42458031-.56-2.04z" fill="#c81e1e"/><path id="Shape" d="m59 50s-2 9-29 9-29-9-29-9c0-13.38 3.21-21.94 7.18-27.4.06627705.2464628.16020693.4846421.28.71.58014681 1.1602163 1.7266158 1.9308561 3.02 2.03 2.46.13 4.45-2.37 6.9-2.64 2.28-.26 4.33 1.45 5.97 3.2s2.89 4.1 5.65 4.1 4.02-2.36 5.65-4.1 3.69-3.46 5.97-3.2c2.45.27 4.44 2.77 6.9 2.64 1.2933842-.0991439 2.4398532-.8697837 3.02-2.03.1197931-.2253579.2137229-.4635372.28-.71 3.97 5.46 7.18 14.02 7.18 27.4z" fill="#783e22"/><path id="Shape" d="m53 51.82c-.4141534 1.7390596-1.3202411 3.3221093-2.61 4.56-4.31 1.48-10.76 2.62-20.39 2.62s-16.08-1.14-20.39-2.62c-1.28975887-1.2378907-2.19584655-2.8209404-2.61-4.56 0-11.75 1.37-20.4 3.35-26.75.3568169.1588453.7399164.2503823 1.13.27 2.46.13 4.45-2.37 6.9-2.64 2.28-.26 4.33 1.45 5.97 3.2s2.89 4.1 5.65 4.1 4.02-2.36 5.65-4.1 3.69-3.46 5.97-3.2c2.45.27 4.44 2.77 6.9 2.64.3900836-.0196177.7731831-.1111547 1.13-.27 1.98 6.35 3.35 15 3.35 26.75z" fill="#a0522d"/><path id="Shape" d="m30 13c-.0551566 2.1371797-1.7811217 3.8531974-3.9185845 3.8960001-2.1374627.0428028-3.9307433-1.6027419-4.0714155-3.7360001-.0083078-.0529056-.0116557-.1064716-.01-.16 0-2.209139 1.790861-4 4-4 .1907544-.00161501.3813408.01175947.57.04 1.1959083.17124765 2.2486596.87798977 2.86 1.92h.01c.3710492.6154197.5648459 1.3213934.56 2.04z" fill="#f44335"/><path id="Shape" d="m29.44 10.96h-.01c-.6113404-1.04201023-1.6640917-1.74875235-2.86-1.92-.1886592-.02824053-.3792456-.04161501-.57-.04-.5147484.00153378-1.0242577.10343563-1.5.3.8098111.32367731 1.4888389.9077116 1.93 1.66h.01c.3710492.6154197.5648459 1.3213934.56 2.04-.0020078 1.6309013-.993961 3.0972669-2.507 3.706 1.2334053.5016495 2.6355722.356669 3.7402423-.3867318 1.1046702-.7434007 1.7670041-1.98775 1.7667577-3.3192682.0048459-.7186066-.1889508-1.4245803-.56-2.04z" fill="#c81e1e"/><path id="Shape" d="m51.82 22.6c-.0662771.2464628-.1602069.4846421-.28.71-.5801468 1.1602163-1.7266158 1.9308561-3.02 2.03-2.46.13-4.45-2.37-6.9-2.64-2.28-.26-4.33 1.45-5.97 3.2s-2.89 4.1-5.65 4.1-4.02-2.36-5.65-4.1-3.69-3.46-5.97-3.2c-2.45.27-4.44 2.77-6.9 2.64-1.2933842-.0991439-2.43985319-.8697837-3.02-2.03-.11979307-.2253579-.21372295-.4635372-.28-.71 2.8836083-4.0983009 6.9734432-7.1953896 11.7-8.86h.01c.6944325-.2355533 1.4023708-.4292346 2.12-.58.1406722 2.1332582 1.9339528 3.7788029 4.0714155 3.7360001 2.1374628-.0428027 3.8634279-1.7588204 3.9185845-3.8960001.0551566 2.1371797 1.7811217 3.8531974 3.9185845 3.8960001 2.1374627.0428028 3.9307433-1.6027419 4.0714155-3.7360001.7176292.1507654 1.4255675.3444467 2.12.58h.01c4.7265568 1.6646104 8.8163917 4.7616991 11.7 8.86z" fill="#ffe0b2"/><path id="Shape" d="m22 13c-.0016557.0535284.0016922.1070944.01.16-.7176292.1507654-1.4255675.3444467-2.12.58h-.01c-2.02-4.63-5.88-1.74-5.88-1.74-2.74-6.52-8.32-2-8.32-2 .58-4.71-3.51-5.78-4.48-5.97 2.7180549.33007367 5.40355172-.8274022 7.03-3.03 0 0 2.74 6.52 7.79 2.09 0 0 .98 2.91 4.98 1.91.1048744 1.90698126.9736015 3.69129614 2.41 4.95-.896939.75887-1.4129697 1.8751066-1.41 3.05z" fill="#549414"/><path id="Shape" d="m1.2 4.03-.2-.03" fill="#549414"/><path id="Shape" d="m54.32 10s-5.58-4.52-8.32 2c0 0-3.86-2.89-5.88 1.74h-.01c-.6944325-.2355533-1.4023708-.4292346-2.12-.58.0083078-.0529056.0116557-.1064716.01-.16.0029697-1.1748934-.513061-2.29113-1.41-3.05 1.4363985-1.25870386 2.3051256-3.04301874 2.41-4.95 4 1 4.98-1.91 4.98-1.91 5.05 4.43 7.79-2.09 7.79-2.09 1.6264483 2.2025978 4.3119451 3.36007367 7.03 3.03-.97.19-5.06 1.26-4.48 5.97z" fill="#549414"/><path id="Shape" d="m22.9 45c-.2562059-.0001631-.5003376.1088761-.6712023.2997864s-.2522651.4455941-.2237977.7002136c.5316272 4.0081995 3.949698 7.0028491 7.993 7.0028491s7.4613728-2.9946496 7.993-7.0028491c.0285695-.2554884-.0534826-.5109989-.2254605-.7020855-.171978-.1910866-.4174637-.2995069-.6745395-.2979145z" fill="#37474f"/><path id="Shape" d="m35.01 51.25v.01c-2.9371918 2.3235572-7.0874519 2.3194152-10.02-.01 1.2419953-1.4714597 3.0850776-2.2991913 5.01-2.25 1.9249224-.0491913 3.7680047.7785403 5.01 2.25z" fill="#e91e63"/><path id="Shape" d="m38 13c-.0551566 2.1371797-1.7811217 3.8531974-3.9185845 3.8960001-2.1374627.0428028-3.9307433-1.6027419-4.0714155-3.7360001-.0083078-.0529056-.0116557-.1064716-.01-.16 0-2.209139 1.790861-4 4-4 .1907544-.00161501.3813408.01175947.57.04 1.1959083.17124765 2.2486596.87798977 2.86 1.92h.01c.3710492.6154197.5648459 1.3213934.56 2.04z" fill="#f44335"/><path id="Shape" d="m37.44 10.96h-.01c-.6113404-1.04201023-1.6640917-1.74875235-2.86-1.92-.1886592-.02824053-.3792456-.04161501-.57-.04-.5147484.00153378-1.0242577.10343563-1.5.3.8098111.32367731 1.4888389.9077116 1.93 1.66h.01c.3710492.6154197.5648459 1.3213934.56 2.04-.0020078 1.6309013-.993961 3.0972669-2.507 3.706 1.2334053.5016495 2.6355722.356669 3.7402423-.3867318 1.1046702-.7434007 1.7670041-1.98775 1.7667577-3.3192682.0048459-.7186066-.1889508-1.4245803-.56-2.04z" fill="#c81e1e"/><path id="Shape" d="m22.03 13.42c-.4433774.1547979-.8774348.3350987-1.3.54h-.01c-2.72 1.3-6.92 4.29-10.51 11.05-.75489656-.3580993-1.37017459-.955798-1.75-1.7-.11979307-.2253579-.21372295-.4635372-.28-.71 2.8836083-4.0983009 6.9734432-7.1953896 11.7-8.86h.01c.6944325-.2355533 1.4023708-.4292346 2.12-.58.0016901.0869778.0083677.173787.02.26z" fill="#dfc49c"/><path id="Shape" d="m51.82 22.6c-.0662771.2464628-.1602069.4846421-.28.71-.3798254.744202-.9951034 1.3419007-1.75 1.7-3.59-6.76-7.79-9.75-10.51-11.05h-.01c-.4225652-.2049013-.8566226-.3852021-1.3-.54.0116323-.086213.0183099-.1730222.02-.26.7176292.1507654 1.4255675.3444467 2.12.58h.01c4.7265568 1.6646104 8.8163917 4.7616991 11.7 8.86z" fill="#dfc49c"/><path id="Shape" d="m18 32.2c.5345058-1.2038968 1.6866365-2.0173011 3-2.118 1.776 0 3 1.686 3 3.684 0 2.349-1.764 4.023-4.479 6.615-.8477252.8212251-2.1942748.8212251-3.042 0-2.715-2.589-4.479-4.263-4.479-6.612 0-2 1.224-3.684 3-3.684 1.312682.1001363 2.4646459.9122708 3 2.115z" fill="#ef314c"/><path id="Shape" d="m21 30.085c-.5464094.0012196-1.0808332.1602619-1.539.458 1.0142204.7552358 1.5901644 1.9625102 1.539 3.226 0 2.349-1.764 4.023-4.479 6.615-.007.007-.014.011-.021.017.8493538.8035282 2.1807431.7960361 3.021-.017 2.715-2.592 4.479-4.266 4.479-6.615 0-1.998-1.224-3.684-3-3.684z" fill="#bb193b"/><path id="Shape" d="m42 32.2c.5345058-1.2038968 1.6866365-2.0173011 3-2.118 1.776 0 3 1.686 3 3.684 0 2.349-1.764 4.023-4.479 6.615-.8477252.8212251-2.1942748.8212251-3.042 0-2.715-2.589-4.479-4.263-4.479-6.612 0-2 1.224-3.684 3-3.684 1.312682.1001363 2.4646459.9122708 3 2.115z" fill="#ef314c"/><path id="Shape" d="m45 30.085c-.5464094.0012196-1.0808332.1602619-1.539.458 1.0142204.7552358 1.5901644 1.9625102 1.539 3.226 0 2.349-1.764 4.023-4.479 6.615-.007.007-.014.011-.021.017.8493538.8035282 2.1807431.7960361 3.021-.017 2.715-2.592 4.479-4.266 4.479-6.615 0-1.998-1.224-3.684-3-3.684z" fill="#bb193b"/><g fill="#000"><path id="Shape" d="m41.568 13.2c.299877-.4834082.7599711-.8461747 1.3-1.025.8923573-.1312356 1.8006121.0924176 2.53.623.2464608.1844508.5641401.2451081.8612223.1644408.2970821-.0806673.5404545-.293668.6597777-.5774408.671-1.6 1.563-2.546 2.652-2.824 1.953-.5 4.1 1.2 4.116 1.213.3168909.2575575.7585485.2965601 1.1156726.0985246.3571241-.1980356.5579581-.5933182.5073274-.9985246-.2029877-1.13335689.0738826-2.30010979.7644443-3.22142755.6905617-.92131775 1.7327693-1.51442201 2.8775557-1.63757245l.194-.031c.5305685-.09567071.8897886-.59471154.8121102-1.12821119s-.5642894-.90938611-1.1001102-.84978881l-.173.026c-2.3512209.29121533-4.6779444-.70131643-6.095-2.6-.2106766-.29698985-.5633373-.45960986-.926-.427-.3633792.03754846-.6773664.27025934-.819.607-.011.026-1.113 2.537-2.947 2.96-1.221693.14004642-2.4356339-.31974578-3.258-1.234-.2511608-.21336977-.5906941-.29063686-.9094527-.20696273-.3187586.08367412-.5765662.31774323-.6905473.62696273-.078.208-.835 2.008-3.794 1.272-.2981856-.07568383-.6146114-.00990607-.857931.17834441-.2433196.18825047-.3864489.47801937-.388069.78565559-.0909088 1.36373631-.6362892 2.65765045-1.549 3.675-.4903504-.28321306-1.0258614-.47975881-1.583-.581.0843743-.35662033.1286488-.72154966.132-1.088 0-2.76142375-2.2385763-5-5-5s-5 2.23857625-5 5c.0036873.36648732.0482972.73141623.133 1.088-.5574996.10107251-1.0933676.29762508-1.584.581-.911481-1.01576055-1.4567763-2.30736057-1.549-3.669-.0000081-.30801473-.1419601-.59883979-.3847868-.78833451-.2428268-.18949472-.5594308-.25651307-.8582132-.18166549-2.957.737-3.717-1.063-3.789-1.259-.1065333-.3173242-.3647683-.56030222-.6879847-.64733749s-.668544-.00658373-.9200153.21433749c-.8206476.91498065-2.0339512 1.37532782-3.255 1.235-1.852-.422-2.943-2.937-2.953-2.961-.1416336-.33674066-.45562077-.56945154-.819-.607-.36280724-.03344891-.71586763.1293554-.926.427-1.40841859 1.88874612-3.71686794 2.88347169-6.057 2.61l-.211-.032c-.53582084-.0595973-1.02243177.31628916-1.10011018.84978881s.28154169 1.03254048.81211018 1.12821119l.16.024c1.257.246 4.126 1.213 3.677 4.866-.04937437.4040751.15112194.7977505.50697431.9954462.35585237.1976958.79602763.1599491 1.11302569-.0954462.021-.016 2.165-1.711 4.118-1.214 1.089.278 1.981 1.227 2.652 2.824.1195928.2818133.3616833.4933201.657.574.297938.0810587.6165871.0213811.865-.162.7292729-.5334031 1.6392109-.7582832 2.533-.626.5400289.1788253 1.000123.5415918 1.3 1.025-6.822 2.685-18.433 11.036-18.433 36.801-.00004103.0729978.0080081.1457754.024.217.089.399 2.49 9.783 29.976 9.783s29.887-9.384 29.976-9.783c.0159919-.0712246.024041-.1440022.024-.217 0-25.765-11.611-34.116-18.432-36.8zm-1.707-7.031c1.6455513.2728445 3.3140688-.33388915 4.4-1.6 1.1630763.88968985 2.6530865 1.23513609 4.089.948 1.4997489-.4444544 2.7791612-1.43352892 3.587-2.773.9133339.89142022 2.0302625 1.54668042 3.254 1.909-1.0484647.91291168-1.7167414 2.18559879-1.873 3.567-1.2964584-.68180602-2.7889599-.89380908-4.224-.6-1.5507539.44335295-2.836829 1.53061805-3.532 2.986-.9920408-.4803986-2.117686-.61013162-3.193-.368-1.1958794.3554831-2.1928843 1.1872245-2.757 2.3-.238-.0666667-.4636667-.1276667-.677-.183-.1105342-.8598796-.4454156-1.6755279-.971-2.365.9589269-1.08362083 1.6134875-2.4020583 1.897-3.821zm-5.861 3.831c1.6568542 0 3 1.3431458 3 3s-1.3431458 3-3 3-3-1.3431458-3-3 1.3431458-3 3-3zm-4-6c1.6568542 0 3 1.34314575 3 3-.0095047.41097949-.1052387.81537865-.281 1.187-1.0884278.29028239-2.0466808.9401605-2.719 1.844-.6723192-.9038395-1.6305722-1.55371761-2.719-1.844-.1757613-.37162135-.2714953-.77602051-.281-1.187 0-1.65685425 1.3431458-3 3-3zm-4 6c1.6568542 0 3 1.3431458 3 3s-1.3431458 3-3 3-3-1.3431458-3-3 1.3431458-3 3-3zm-8.369.241c-1.0752882-.24261289-2.2010937-.1128614-3.193.368-.695171-1.45538195-1.9812461-2.54264705-3.532-2.986-1.43499373-.29532017-2.92800693-.08324443-4.224.6-.1570567-1.38069562-.82652376-2.65218343-1.876-3.563 1.22486231-.36330085 2.34276603-1.01955873 3.257-1.912.80813268 1.3392093 2.0874305 2.3281953 3.587 2.773 1.4355684.28524048 2.924495-.06003897 4.088-.948 1.0860471 1.26594336 2.7544675 1.87264169 4.4 1.6.2847115 1.41853827.9403023 2.73627573 1.9 3.819-.5255844.6894721-.8604658 1.5051204-.971 2.365-.2133333.054-.439.115-.677.183-.5650675-1.1125906-1.5627258-1.9439123-2.759-2.299zm3.587 4.138c.5136287 1.8280822 2.0253131 3.2028571 3.8938034 3.5411513 1.8684902.3382942 3.7662263-.4191979 4.8881966-1.9511513 1.1219703 1.5319534 3.0197064 2.2894455 4.8881966 1.9511513 1.8684903-.3382942 3.3801747-1.7130691 3.8938034-3.5411513 4.789894 1.3766991 8.9849282 4.3093176 11.923 8.335-.02.044-.032.1-.055.14-.4159253.8447331-1.2446399 1.4092308-2.183 1.487-1.1412232-.0820498-2.2344155-.4921706-3.148-1.181-1.0791812-.732382-2.3013938-1.2276064-3.586-1.453-2.85-.325-5.254 1.848-6.813 3.51-.345.368-.675.762-1 1.159-1.178 1.408-2.191 2.624-3.92 2.624s-2.742-1.216-3.916-2.624c-.329-.4-.659-.791-1-1.159-1.558-1.662-3.969-3.832-6.809-3.511-1.2860014.2254189-2.5095817.7209859-3.59 1.454-.9181069.6840283-2.0114363 1.0935501-3.153 1.181-.9469833-.0811982-1.78110581-.6553937-2.195-1.511-.017-.032-.028-.08-.044-.115 2.9376131-4.0272448 7.1337345-6.9604833 11.925-8.336zm8.782 43.621c-24.265 0-27.7-7.351-28-8.147.021-12.023 2.641-20.023 6.048-25.353.8071872 1.0730398 2.0396341 1.7437915 3.379 1.839 1.5316145-.0543257 3.0132877-.5586511 4.26-1.45.8456803-.5836102 1.799834-.9916588 2.806-1.2 1.955-.217 3.864 1.543 5.128 2.891.318.341.622.706.927 1.072 1.306 1.572 2.786 3.348 5.452 3.348s4.146-1.776 5.452-3.344c.3-.366.609-.731.927-1.072 1.264-1.347 3.17-3.1 5.132-2.89 1.004138.2088952 1.9562221.6169312 2.8 1.2 1.2427593.8953675 2.7241013 1.4001726 4.255 1.45 1.3427957-.0950743 2.5783799-.7677691 3.387-1.844 3.4 5.329 6.025 13.327 6.047 25.343-.328.866-3.833 8.157-28 8.157z"/><path id="Shape" d="m25 33.77c0-2.671-1.72-4.685-4-4.685-1.1490534.0075972-2.2403344.5048575-3 1.367-.7596656-.8621425-1.8509466-1.3594028-3-1.367-2.28 0-4 2.014-4 4.685 0 2.765 1.993 4.668 4.789 7.338.5915982.567687 1.380088.8841582 2.2.883.844698-.0026439 1.6556243-.3319595 2.263-.919 2.755-2.634 4.748-4.537 4.748-7.302zm-6.169 5.891c-.2299131.2212443-.5384727.3418138-.8574765.3350584-.3190039-.0067554-.6221827-.1402793-.8425235-.3710584-2.576-2.46-4.131-3.945-4.131-5.855 0-1.3.7-2.685 2-2.685.9185633.0943489 1.7152102.675882 2.085 1.522.1603206.3633624.5204773.5974112.9176344.5963273.397157-.0010839.7560308-.2370952.9143656-.6013273.3772935-.8383779 1.1692937-1.4151731 2.083-1.517 1.3 0 2 1.383 2 2.685 0 1.91-1.555 3.395-4.169 5.891z"/><path id="Shape" d="m45 29.085c-1.1490534.0075972-2.2403344.5048575-3 1.367-.7596656-.8621425-1.8509466-1.3594028-3-1.367-2.28 0-4 2.014-4 4.685 0 2.765 1.993 4.668 4.789 7.338.5915982.567687 1.380088.8841582 2.2.883.844698-.0026439 1.6556243-.3319595 2.263-.919 2.757-2.634 4.75-4.537 4.75-7.3-.002-2.672-1.722-4.687-4.002-4.687zm-2.169 10.576c-.2299131.2212443-.5384727.3418138-.8574765.3350584-.3190039-.0067554-.6221827-.1402793-.8425235-.3710584-2.576-2.46-4.131-3.945-4.131-5.855 0-1.3.7-2.685 2-2.685.9185633.0943489 1.7152102.675882 2.085 1.522.1603206.3633624.5204773.5974112.9176344.5963273.397157-.0010839.7560308-.2370952.9143656-.6013273.3772935-.8383779 1.1692937-1.4151731 2.083-1.517 1.3 0 2 1.383 2 2.685 0 1.91-1.555 3.395-4.169 5.891z"/><path id="Shape" d="m37.1 44h-14.2c-.5473358-.000096-1.06827.2352351-1.43.646-.3568186.4037726-.5232305.9412427-.457 1.476.5952374 4.5076114 4.4382575 7.8765161 8.985 7.8765161s8.3897626-3.3689047 8.985-7.8765161c.0662305-.5347573-.1001814-1.0722274-.457-1.476-.3608074-.4097193-.8800598-.6449486-1.426-.646zm-10.543 7.1c2.0583387-1.4728121 4.8256613-1.4728121 6.884 0-2.1393615 1.1939407-4.7446385 1.1939407-6.884 0zm8.513-1.236c-2.9220046-2.4969476-7.2274302-2.4931281-10.145.009-1.0498028-1.0472948-1.7330812-2.4057842-1.948-3.873h14.007c-.2108608 1.4606399-.8820458 2.8159711-1.916 3.869z"/></g></g></g></svg>